<svg xmlns="http://www.w3.org/2000/svg" viewBox="0 0 512 512" role="img" aria-label="Minhas Receitas">
  <rect width="512" height="512" rx="120" fill="#2F7D65"/>
  <path d="M122 145c0-28 22-50 50-50h177c42 0 76 34 76 76v246H178c-42 0-76-34-76-76V165c0-11 9-20 20-20Z" fill="#FFFDF9"/>
  <path d="M174 208h144M174 265h144M174 322h92" stroke="#2F7D65" stroke-width="30" stroke-linecap="round"/>
  <path d="M388 164v247" stroke="#E2A93B" stroke-width="34" stroke-linecap="round"/>
  <path d="M190 112c0-28 23-51 51-51 12 0 23 4 32 11 13-18 34-30 58-30 39 0 71 32 71 71 0 22-10 42-27 55H217c-17-12-27-32-27-56Z" fill="#F7F4EE"/>
  <path d="M238 167v36M331 167v36" stroke="#2F7D65" stroke-width="24" stroke-linecap="round"/>
</svg>
