<svg xmlns="http://www.w3.org/2000/svg" viewBox="0 0 512 512" role="img" aria-label="Minhas Receitas">
  <rect x="24" y="24" width="464" height="464" rx="150" fill="#2F7D65"/>
  <path d="M181 143c-22-20-21-55 2-77M256 143c-22-20-21-55 2-77M331 143c-22-20-21-55 2-77" fill="none" stroke="#FFFDF9" stroke-width="26" stroke-linecap="round"/>
  <path d="M119 238h274v110c0 49-40 89-89 89h-96c-49 0-89-40-89-89V238Z" fill="#FFFDF9"/>
  <path d="M148 209h216c24 0 43 19 43 43H105c0-24 19-43 43-43Z" fill="#E2A93B"/>
  <path d="M190 323h132" stroke="#2F7D65" stroke-width="30" stroke-linecap="round"/>
  <circle cx="352" cy="179" r="36" fill="#F7F4EE"/>
  <path d="M334 179h36" stroke="#2F7D65" stroke-width="19" stroke-linecap="round"/>
</svg>
