<svg xmlns="http://www.w3.org/2000/svg" viewBox="0 0 64 64" role="img" aria-label="Minhas Receitas">
  <rect width="64" height="64" rx="16" fill="#2F7D65"/>
  <path d="M16 18.5c0-3 2.4-5.5 5.5-5.5H43c3.3 0 6 2.7 6 6v31H22c-3.3 0-6-2.7-6-6V18.5Z" fill="#FFFDF9"/>
  <path d="M22.5 24.5h17M22.5 32h17M22.5 39.5h11" stroke="#2F7D65" stroke-width="4" stroke-linecap="round"/>
  <path d="M45.5 20v29" stroke="#E2A93B" stroke-width="4.2" stroke-linecap="round"/>
  <path d="M24.5 13c0-3.2 2.6-5.8 5.8-5.8 1.4 0 2.7.5 3.7 1.3a6.5 6.5 0 0 1 11 4.7c0 2.4-1.3 4.4-3.2 5.5H27.1a6.2 6.2 0 0 1-2.6-5.7Z" fill="#F7F4EE"/>
  <path d="M29 18.7v3.8M39.5 18.7v3.8" stroke="#2F7D65" stroke-width="2.6" stroke-linecap="round"/>
</svg>
